<?xml version="1.0" encoding="utf-8"?>
<!-- Generator: Adobe Illustrator 26.3.0, SVG Export Plug-In . SVG Version: 6.00 Build 0)  -->
<svg version="1.1" id="Layer_1" xmlns="http://www.w3.org/2000/svg" xmlns:xlink="http://www.w3.org/1999/xlink" x="0px" y="0px"
	 viewBox="0 0 515 482" style="enable-background:new 0 0 515 482;" xml:space="preserve">
<style type="text/css">
	.st0{fill:#EFF1F7;}
	.st1{fill:#3F3D56;}
	.st2{fill:#2BD0D0;}
	.st3{fill:#25233A;}
	.st4{fill:#503164;}
	.st5{opacity:0.197;fill:url(#SVGID_1_);enable-background:new    ;}
	.st6{opacity:0.19;fill:url(#SVGID_00000057852031391572787900000003996002797161667508_);enable-background:new    ;}
	.st7{fill:url(#SVGID_00000156559736382963347790000015263690046986347665_);}
	.st8{fill:url(#SVGID_00000005949904741681038200000012617736766739936658_);}
	.st9{fill:url(#SVGID_00000075848710601828093250000018292553399040249258_);}
	.st10{fill:url(#SVGID_00000098212189471472049020000011163885678339235972_);}
	.st11{fill:url(#SVGID_00000035531469899589639810000011688428719453470110_);}
	.st12{fill:url(#SVGID_00000081625617581607148120000014782882209505220508_);}
	.st13{fill:url(#SVGID_00000181079381774422988780000007881825217282835127_);}
	.st14{fill:url(#SVGID_00000178917037581123693580000004470700143201829016_);}
	.st15{fill:url(#SVGID_00000103984554908046929400000010339704970652456589_);}
	.st16{fill:url(#SVGID_00000151509820936362964500000010943194671478156161_);}
	.st17{fill:url(#SVGID_00000140714793673375718890000018428202903925622400_);}
	.st18{fill:url(#SVGID_00000044175193224368620790000012035403361730142105_);}
	.st19{opacity:0.25;fill:#FFFFFF;enable-background:new    ;}
	.st20{fill:url(#SVGID_00000162311019928983612520000008502859987808693687_);}
	.st21{fill:url(#SVGID_00000160151827926612119040000012808016426269852316_);}
	.st22{fill:url(#SVGID_00000002376189128341943740000005517085351739204742_);}
	.st23{fill:url(#SVGID_00000057114553265178375220000002624354846394988725_);}
	.st24{fill:url(#SVGID_00000052804064899010412180000018187941386890033539_);}
	.st25{fill:url(#SVGID_00000048494351808609339280000005090507813133289120_);}
</style>
<g>
	<path class="st0" d="M583.1,92.2c-21-22.4-37.2-49.1-62.3-67.4c-39.4-28.8-96-31.6-142.1-13.5c-46,18.1-81.9,54.5-105.5,95.7
		c-12.4,21.7-22.2,45.4-40.4,63.1c-15.4,15-35.6,24.5-54.8,34.9c-30.9,16.7-60.8,37-80.8,64.7c-20,27.7-29,64.2-16.2,95.4
		c8.6,21.1,26,37.9,43.8,53.1c21,17.9,43.5,34.6,69.5,45.2c32.6,13.2,68.7,16.1,104.1,17.4c62.8,2.4,125.8,0.6,188.3-5.3
		c51.2-4.8,104-13.1,146.9-39.9c60-37.5,91-106.2,98-173.5c2.8-26.9,2.1-54.9-9-79.9C696.1,122.6,624.6,136.5,583.1,92.2L583.1,92.2
		z"/>
	<path class="st1" d="M178.3,202.3c0,0-16.6-2.9-21.2,8.7c-4.6,11.6,0,51.7,0,51.7L219,307L178.3,202.3z"/>
	<path class="st2" d="M256.2,379.7l-24.6,7c-3.6,1-7.3-1-8.4-4.4c-1-3.4,1-7,4.6-8.1l24.5-7c3.6-1,7.3,0.9,8.4,4.4
		C261.8,375.1,259.8,378.7,256.2,379.7L256.2,379.7z"/>
	<circle class="st3" cx="255" cy="395" r="11"/>
	<circle class="st1" cx="253.5" cy="397.5" r="5.5"/>
	<circle class="st3" cx="210" cy="384" r="11"/>
	<path class="st3" d="M0,0"/>
	<circle class="st3" cx="207" cy="399" r="11"/>
	<path class="st3" d="M0,0"/>
	<path class="st2" d="M257.1,390.9l-50.8-10c-3.6-0.7-5.9-4.1-5.2-7.6c0.7-3.5,4.2-5.8,7.8-5.1l50.8,10c3.6,0.7,5.9,4.1,5.2,7.6
		C264.1,389.3,260.7,391.6,257.1,390.9L257.1,390.9z"/>
	<path class="st2" d="M0,0"/>
	<path class="st2" d="M231.2,386.7l-24.5,7c-3.6,1-7.3-0.9-8.4-4.4c-1-3.4,1-7,4.5-8.1l24.5-7c3.6-1,7.3,0.9,8.4,4.4
		C236.8,382.1,234.7,385.7,231.2,386.7L231.2,386.7z"/>
	<path class="st2" d="M0,0"/>
	<path class="st2" d="M0,0"/>
	<path class="st2" d="M0,0"/>
	<path class="st2" d="M0,0"/>
	<path class="st2" d="M0,0"/>
	<path class="st2" d="M0,0"/>
	<path class="st4" d="M259,89.4c0,0-0.3-20.8-17.1-19c-16.8,1.8-15.5-5.1-22.7-4.3c-7.2,0.8-15.5,7.8-13.1,16.5
		c2.4,8.7-6.3,10.6-12.1,17.2c-5.7,6.6,1.3,12,11,18.4s-0.6,4.8,5.1,15c5.7,10.2,25.1-2.8,25.1-2.8L259,89.4z"/>
	<path class="st2" d="M122.7,434.6l11.7,0.4v-93.7c0,0,0.6-24.2,23.5-26.7c22.9-2.4,230.2-32.5,230.2-32.5s8.2-0.9,13,14.9
		s9.3,77.8,9.3,77.8l63.6,8.6c0,0,1.7-109.6-21.3-115.6c-23-6-323.5,24.8-323.5,24.8S106.9,408.9,122.7,434.6L122.7,434.6z"/>
	
		<linearGradient id="SVGID_1_" gradientUnits="userSpaceOnUse" x1="-590.277" y1="779.713" x2="-591.7037" y2="779.7453" gradientTransform="matrix(357.0001 0 0 -168.0001 211225.0469 131345.0469)">
		<stop  offset="0" style="stop-color:#000000"/>
		<stop  offset="1" style="stop-color:#000000;stop-opacity:0"/>
	</linearGradient>
	<path class="st5" d="M122.7,434.6l11.7,0.4v-93.7c0,0,0.6-24.2,23.5-26.7c22.9-2.4,230.2-32.5,230.2-32.5s8.2-0.9,13,14.9
		s9.3,77.8,9.3,77.8l63.6,8.6c0,0,1.7-109.6-21.3-115.6c-23-6-323.5,24.8-323.5,24.8S106.9,408.9,122.7,434.6L122.7,434.6z"/>
	<path class="st2" d="M62,303.8c0,0,5.7-31.8,46.1-40.1l285.2-32.6c0,0,28-1.2,40.8,6.6c12.8,7.7,31.1,14.2,38.6,49.2
		c7.5,35.1,9.3,94.9,9.3,94.9l-7.1,1.1c0,0-10.3-108.4-21.3-115.3c-11-6.9-307.4,35.3-307.4,35.3s-20.6,4.1-22.4,34.5
		c-1.8,30.4,0,96.6,0,96.6L62,409.1V303.8z"/>
	
		<linearGradient id="SVGID_00000091736208224160323130000017140272026741956012_" gradientUnits="userSpaceOnUse" x1="-590.595" y1="774.5698" x2="-589.595" y2="774.5698" gradientTransform="matrix(262.0003 0 0 -43.0005 154948.1562 33569.3828)">
		<stop  offset="0" style="stop-color:#183866"/>
		<stop  offset="1" style="stop-color:#1A7FC1"/>
	</linearGradient>
	<path style="opacity:0.19;fill:url(#SVGID_00000091736208224160323130000017140272026741956012_);enable-background:new    ;" d="
		M355.4,243.8c-14.8-1.9-29.6-3.3-44.5-2.7c-11.2,0.4-22.3,2-33.4,3.5l-97.8,13.5c-1.7,0.2-3.6,0.6-4.4,2c-1.6,2.8,2.1,5.5,5.2,6.5
		c32.5,11.3,67.2,22.7,100.7,14.6c15.3-3.7,29.5-11.3,45-13.9c15.5-2.6,31.4-0.2,46.9-2.7c14.6-2.3,28.4-9,43.2-9.1
		c4.5,0,9.2,0.6,13.5-0.8c4.3-1.4,8.1-5.7,6.9-10.1c-13.9-0.5-29.4-3-43-0.3C380.3,247.2,368.9,243.8,355.4,243.8L355.4,243.8z"/>
	<path class="st2" d="M267,259.4l0.6,2.1c0,0,16.9,10.2,16.8,10.5c-0.1,0.3,70-16.2,70-16.2l1.6-4.8L267,259.4z"/>
	
		<linearGradient id="SVGID_00000090991562731896307010000015297954737451238558_" gradientUnits="userSpaceOnUse" x1="-585.897" y1="767.4537" x2="-585.5865" y2="767.1691" gradientTransform="matrix(89 0 0 -20.9998 52451 16374.8564)">
		<stop  offset="0" style="stop-color:#000000"/>
		<stop  offset="0.99" style="stop-color:#000000;stop-opacity:0"/>
	</linearGradient>
	<path style="fill:url(#SVGID_00000090991562731896307010000015297954737451238558_);" d="M267,259.4l0.6,2.1
		c0,0,16.9,10.2,16.8,10.5c-0.1,0.3,70-16.2,70-16.2l1.6-4.8L267,259.4z"/>
	<path class="st2" d="M268,259.4l62.1-13.4l25.9,5.1L285.4,268L268,259.4z"/>
	
		<linearGradient id="SVGID_00000020395771306200483780000006198828524004855428_" gradientUnits="userSpaceOnUse" x1="-586.387" y1="768.0007" x2="-585.3248" y2="767.9158" gradientTransform="matrix(88 0 0 -22 51859 17152)">
		<stop  offset="0" style="stop-color:#000000"/>
		<stop  offset="0.99" style="stop-color:#000000;stop-opacity:0"/>
	</linearGradient>
	<path style="fill:url(#SVGID_00000020395771306200483780000006198828524004855428_);" d="M268,259.4l62.1-13.4l25.9,5.1L285.4,268
		L268,259.4z"/>
	<path class="st2" d="M247.8,270.5l14.5,0.5c0,0,3.7,0.2,4.6-2.7c1-2.9-5.9-9.2-6.6-9.3c-0.7-0.1-19.8,5.2-17,10.6L247.8,270.5
		L247.8,270.5z"/>
	
		<linearGradient id="SVGID_00000085233657709212703720000011031694608701931187_" gradientUnits="userSpaceOnUse" x1="-567.7079" y1="756.732" x2="-567.8078" y2="756.3488" gradientTransform="matrix(23.9996 0 0 -12 13881.7461 9345.0234)">
		<stop  offset="0" style="stop-color:#000000"/>
		<stop  offset="0.99" style="stop-color:#000000;stop-opacity:0"/>
	</linearGradient>
	<path style="fill:url(#SVGID_00000085233657709212703720000011031694608701931187_);" d="M247.8,270.5l14.5,0.5
		c0,0,3.7,0.2,4.6-2.7c1-2.9-5.9-9.2-6.6-9.3c-0.7-0.1-19.8,5.2-17,10.6L247.8,270.5L247.8,270.5z"/>
	<path class="st2" d="M79,416.1l-7.1,21.7c-20.5,7.4-37.9,0-37.9,0L29,415C29,415,54.5,423.6,79,416.1z"/>
	
		<linearGradient id="SVGID_00000097497694381844625440000009903427621973302440_" gradientUnits="userSpaceOnUse" x1="-579.3083" y1="770.0065" x2="-580.196" y2="770.0243" gradientTransform="matrix(50 0 0 -26.0001 29086 20449.0723)">
		<stop  offset="0" style="stop-color:#000000"/>
		<stop  offset="0.99" style="stop-color:#000000;stop-opacity:0"/>
	</linearGradient>
	<path style="fill:url(#SVGID_00000097497694381844625440000009903427621973302440_);" d="M79,416.1l-7.1,21.7
		c-20.5,7.4-37.9,0-37.9,0L29,415C29,415,54.5,423.6,79,416.1z"/>
	<path class="st2" d="M87,396l-2.3,16.9l-5.8,3c-24.6,7.4-50.4-1-50.4-1l-4.4-3.3L22,396H87z"/>
	
		<linearGradient id="SVGID_00000115500992919243843390000004827121310585624762_" gradientUnits="userSpaceOnUse" x1="-582.2126" y1="768.5324" x2="-582.7831" y2="768.5393" gradientTransform="matrix(65 0 0 -22.9996 37974 18083.6895)">
		<stop  offset="0" style="stop-color:#000000"/>
		<stop  offset="0.99" style="stop-color:#000000;stop-opacity:0"/>
	</linearGradient>
	<path style="fill:url(#SVGID_00000115500992919243843390000004827121310585624762_);" d="M87,396l-2.3,16.9l-5.8,3
		c-24.6,7.4-50.4-1-50.4-1l-4.4-3.3L22,396H87z"/>
	<ellipse class="st2" cx="54.5" cy="395" rx="32.5" ry="6"/>
	
		<linearGradient id="SVGID_00000179611961118163473800000009659974718238705028_" gradientUnits="userSpaceOnUse" x1="-583.307" y1="756.7305" x2="-583.5956" y2="756.467" gradientTransform="matrix(65 0 0 -12 37974 9475)">
		<stop  offset="0" style="stop-color:#000000"/>
		<stop  offset="0.99" style="stop-color:#000000;stop-opacity:0"/>
	</linearGradient>
	<ellipse style="fill:url(#SVGID_00000179611961118163473800000009659974718238705028_);" cx="54.5" cy="395" rx="32.5" ry="6"/>
	
		<linearGradient id="SVGID_00000000203776485157634320000004041020732611026317_" gradientUnits="userSpaceOnUse" x1="-584.2154" y1="789.5833" x2="-584.2154" y2="789.5833" gradientTransform="matrix(65 0 0 -12 37974 9475)">
		<stop  offset="0" style="stop-color:#000000"/>
		<stop  offset="0.99" style="stop-color:#000000;stop-opacity:0"/>
	</linearGradient>
	<path style="fill:url(#SVGID_00000000203776485157634320000004041020732611026317_);" d="M0,0"/>
	
		<linearGradient id="SVGID_00000154389434726678956590000010022153205009358766_" gradientUnits="userSpaceOnUse" x1="-584.2154" y1="789.5833" x2="-584.2154" y2="789.5833" gradientTransform="matrix(65 0 0 -12 37974 9475)">
		<stop  offset="0" style="stop-color:#000000"/>
		<stop  offset="0.99" style="stop-color:#000000;stop-opacity:0"/>
	</linearGradient>
	<path style="fill:url(#SVGID_00000154389434726678956590000010022153205009358766_);" d="M0,0"/>
	
		<linearGradient id="SVGID_00000124155041145092266150000004698835151003816587_" gradientUnits="userSpaceOnUse" x1="-584.2154" y1="789.5833" x2="-584.2154" y2="789.5833" gradientTransform="matrix(65 0 0 -12 37974 9475)">
		<stop  offset="0" style="stop-color:#000000"/>
		<stop  offset="0.99" style="stop-color:#000000;stop-opacity:0"/>
	</linearGradient>
	<path style="fill:url(#SVGID_00000124155041145092266150000004698835151003816587_);" d="M0,0"/>
	
		<linearGradient id="SVGID_00000022535217272460986630000004684760399290900129_" gradientUnits="userSpaceOnUse" x1="-584.2154" y1="789.5833" x2="-584.2154" y2="789.5833" gradientTransform="matrix(65 0 0 -12 37974 9475)">
		<stop  offset="0" style="stop-color:#000000"/>
		<stop  offset="0.99" style="stop-color:#000000;stop-opacity:0"/>
	</linearGradient>
	<path style="fill:url(#SVGID_00000022535217272460986630000004684760399290900129_);" d="M0,0"/>
	
		<linearGradient id="SVGID_00000115475105740146196330000013929714057512529281_" gradientUnits="userSpaceOnUse" x1="-584.2154" y1="789.5833" x2="-584.2154" y2="789.5833" gradientTransform="matrix(65 0 0 -12 37974 9475)">
		<stop  offset="0" style="stop-color:#000000"/>
		<stop  offset="0.99" style="stop-color:#000000;stop-opacity:0"/>
	</linearGradient>
	<path style="fill:url(#SVGID_00000115475105740146196330000013929714057512529281_);" d="M0,0"/>
	<path class="st2" d="M225.6,146.1c0,0-27.8,4.3-40.7,35c-12.9,30.7-6.2,68.7-6,72c0.2,3.3,39.4,17.9,50.6,17.9
		c11.2,0,13.5-11.2,13.5-11.2l-19.8-8.4l60.2-6.9h10.8l-6,10c0,0,11.7,1.2,19.6,1.5c7.8,0.3,13.2-15.2,14.1-23
		c0.9-7.7-34.7-75.5-40-79.5C276.7,149.5,262.3,139.7,225.6,146.1L225.6,146.1z"/>
	
		<linearGradient id="SVGID_00000010268556440196491030000008911096843661622959_" gradientUnits="userSpaceOnUse" x1="-578.5369" y1="777.6795" x2="-577.5369" y2="777.6795" gradientTransform="matrix(41.0008 0 0 -78.0006 23942.4609 60781.5078)">
		<stop  offset="0" style="stop-color:#ECC4D7"/>
		<stop  offset="0.42" style="stop-color:#EFD4D1"/>
		<stop  offset="1" style="stop-color:#F2EAC9"/>
	</linearGradient>
	<path style="fill:url(#SVGID_00000010268556440196491030000008911096843661622959_);" d="M258.4,88.8c0,0,5,2.8,4.6,12
		c-0.5,9.2-3.3,22.9-6.2,26.5c-2.9,3.6-12.9,5-12.9,5s5.5,13,9.5,16.3c4.1,3.3-4.1,15.7-12,11.6c-7.9-4-17.1-14.2-17.1-14.2
		s6.6-12.2,4.4-18.7c-2.2-6.4-10.8-29.1-4.4-35.2C230.7,85.9,244.5,77,258.4,88.8L258.4,88.8z"/>
	<path class="st19" d="M214.3,190l-4.3,54.1l13.2,6.9l10.8-1.9l-13.4-16.5L214.3,190z M284,187c0,0,17.9,42.1,10,57l-6.1-1.2
		L284,187z"/>
	
		<linearGradient id="SVGID_00000024697681363362035830000005364196736451683489_" gradientUnits="userSpaceOnUse" x1="-576.4046" y1="764.9446" x2="-575.4046" y2="764.9446" gradientTransform="matrix(38.0004 0 0 -18.0001 22172.2266 14032.1074)">
		<stop  offset="0" style="stop-color:#ECC4D7"/>
		<stop  offset="0.42" style="stop-color:#EFD4D1"/>
		<stop  offset="1" style="stop-color:#F2EAC9"/>
	</linearGradient>
	<path style="fill:url(#SVGID_00000024697681363362035830000005364196736451683489_);" d="M235.5,258c0,0-6.8,5.8-3.7,10.3
		c3,4.5,6.6,4.4,9.6,2.4c3-2,8.9-6.8,15.9-4.6s8.7,3.6,8.7,3.6s3.7-2.3,2.7-4.6c-1-2.3-8.3-9.9-10.5-10.8c-2.1-1-11,2-11,2
		S240.9,254.5,235.5,258L235.5,258z"/>
	
		<linearGradient id="SVGID_00000026876745523544578810000005341985224253310140_" gradientUnits="userSpaceOnUse" x1="-571.9903" y1="756.666" x2="-570.9903" y2="756.666" gradientTransform="matrix(30 0 0 -11.9997 17482 9329.75)">
		<stop  offset="0" style="stop-color:#ECC4D7"/>
		<stop  offset="0.42" style="stop-color:#EFD4D1"/>
		<stop  offset="1" style="stop-color:#F2EAC9"/>
	</linearGradient>
	<path style="fill:url(#SVGID_00000026876745523544578810000005341985224253310140_);" d="M295.2,245.6c0,0-6.4,0.8-8,5
		c-1.6,4.2-2.2,4.7-2.2,4.7s3.6,0.7,5.1-1.3s3.1-1.1,3.1-1.1l-0.4,2.5c0,0,9.8,1.5,14.2-0.1c4.4-1.6,6.3-3.5,6.3-3.5l1.7-4.2
		c0,0-4.2-3-7.3-3.5S295.2,245.6,295.2,245.6L295.2,245.6z"/>
	<path class="st3" d="M328.9,290c0,0,21.9,16.7,20,39.3c-1.9,22.6-4.8,56.1-4.8,56.1s-8.8,3.7-14.7,0c-5.9-3.7-9.4-54.6-12.3-59.5
		c-2.9-4.9-20.4-26.8-39-28.7L328.9,290z"/>
	<path class="st1" d="M219,306.1c0,0,10.4,9.9,29.1,13c18.6,3.1,27.3,5.7,33,21.6s11.1,50.1,12.9,54c1.8,3.8,9.4,1.9,9.4,1.9
		s4.3-4.9,4.3-32.1c0-37.9,2.7-45.7-6.9-55.3c-9.6-9.5-18.3-12.1-18.3-12.1L219,306.1z"/>
	<path class="st3" d="M294,396l1.8,14.2h3.4c0,0,21.9,1.2,22.6,0.7c0.7-0.5-1.1-11.2-9.4-10.9c-8.3,0.3-8.9-2-8.9-2L294,396z
		 M331,386.2l3.5,13.8l38.4-5.2c0,0,1.4-9.1-10.8-8.2c-3.2,0.2-5.6,2.5-9.5,2.5s-7.6-1.5-9.5-4.1L331,386.2z M0,0"/>
	<path class="st2" d="M469.8,212.3L327.6,220c-3.4,0.2-6.4-2.5-6.6-5.9V112.5c0-4.1,3.3-7.5,7.3-7.5L470,102c3.8-0.1,6.9,2.9,7,6.7
		v96C477,208.8,473.8,212.1,469.8,212.3z"/>
	
		<linearGradient id="SVGID_00000106146490689445303950000006364693174530255000_" gradientUnits="userSpaceOnUse" x1="-588.2794" y1="779.2057" x2="-589.3277" y2="778.6783" gradientTransform="matrix(156 0 0 -118.0005 92236.0156 92080.4219)">
		<stop  offset="0" style="stop-color:#362958;stop-opacity:0.501"/>
		<stop  offset="1" style="stop-color:#34313D;stop-opacity:0"/>
	</linearGradient>
	<path style="fill:url(#SVGID_00000106146490689445303950000006364693174530255000_);" d="M469.8,212.3L327.6,220
		c-3.4,0.2-6.4-2.5-6.6-5.9V112.5c0-4.1,3.3-7.5,7.3-7.5L470,102c3.8-0.1,6.9,2.9,7,6.7v96C477,208.8,473.8,212.1,469.8,212.3z"/>
	
		<linearGradient id="SVGID_00000159455758333662926570000007372600369369228961_" gradientUnits="userSpaceOnUse" x1="-591.2564" y1="780.339" x2="-591.2564" y2="780.339" gradientTransform="matrix(156 0 0 -118.0005 92236.0156 92080.4219)">
		<stop  offset="0" style="stop-color:#362958;stop-opacity:0.501"/>
		<stop  offset="1" style="stop-color:#34313D;stop-opacity:0"/>
	</linearGradient>
	<path style="fill:url(#SVGID_00000159455758333662926570000007372600369369228961_);" d="M0,0"/>
	
		<linearGradient id="SVGID_00000086671723766586138150000002736060741943853222_" gradientUnits="userSpaceOnUse" x1="-591.2564" y1="780.339" x2="-591.2564" y2="780.339" gradientTransform="matrix(156 0 0 -118.0005 92236.0156 92080.4219)">
		<stop  offset="0" style="stop-color:#362958;stop-opacity:0.501"/>
		<stop  offset="1" style="stop-color:#34313D;stop-opacity:0"/>
	</linearGradient>
	<path style="fill:url(#SVGID_00000086671723766586138150000002736060741943853222_);" d="M0,0"/>
	
		<linearGradient id="SVGID_00000033355441644069055560000003868573983753004221_" gradientUnits="userSpaceOnUse" x1="-76.101" y1="511.8143" x2="-77.2668" y2="512.2457" gradientTransform="matrix(0.9995 0 0 -0.9996 261.729 872.6659)">
		<stop  offset="0" style="stop-color:#000000"/>
		<stop  offset="0.99" style="stop-color:#000000;stop-opacity:0"/>
	</linearGradient>
	<path style="fill:url(#SVGID_00000033355441644069055560000003868573983753004221_);" d="M263,389c-0.9,1-1.3,1.4-0.8,0.5
		C262.5,389.4,262.8,389.2,263,389z"/>
</g>
</svg>
